<svg width="21" height="20" viewBox="0 0 21 20" fill="none" xmlns="http://www.w3.org/2000/svg">
<path d="M10.1763 0C4.65633 0 0.176331 4.48 0.176331 10C0.176331 15.52 4.65633 20 10.1763 20C15.6963 20 20.1763 15.52 20.1763 10C20.1763 4.48 15.6963 0 10.1763 0ZM10.1763 3C11.8363 3 13.1763 4.34 13.1763 6C13.1763 7.66 11.8363 9 10.1763 9C8.51633 9 7.17633 7.66 7.17633 6C7.17633 4.34 8.51633 3 10.1763 3ZM10.1763 17.2C7.67633 17.2 5.46633 15.92 4.17633 13.98C4.20633 11.99 8.17633 10.9 10.1763 10.9C12.1663 10.9 16.1463 11.99 16.1763 13.98C14.8863 15.92 12.6763 17.2 10.1763 17.2Z" fill="#BDBDBD"/>
</svg>
